<svg xmlns="http://www.w3.org/2000/svg" id="Layer_1" viewBox="0 0 86.47 86.7" width="86.47" height="86.7"><defs><style>.cls-1{fill:#b1b1b1}.cls-2{fill:#dedede}.cls-3{fill:#c2c2c2}</style></defs><path d="M80.49 32.94l-6-4.79v-9.83c0-3.45-2.8-6.25-6.25-6.25H54.41l-8.33-6.83a4.166 4.166 0 0 0-5.21 0l-8.79 6.83H18.25c-3.45 0-6.25 2.8-6.25 6.25v9.83l-6 4.79a6.277 6.277 0 0 0-2.33 4.88v38.83c0 3.45 2.8 6.25 6.25 6.25h66.66c3.45 0 6.25-2.8 6.25-6.25V37.82c0-1.89-.86-3.68-2.33-4.88zm-3.13 2.83l-2.88 2.17v-4.46l2.88 2.29zM43.24 8.48l4.46 3.58h-8.91l4.46-3.58zm-25 7.75h50a2.082 2.082 0 0 1 2.08 2.08v22.75L43.24 61.52 16.16 41.06V18.31c0-1.15.93-2.08 2.08-2.08zm-6.25 21.71l-2.88-2.17 2.88-2.29v4.46zm64.58 40.79H9.91a2.09 2.09 0 0 1-2.09-2.09V39.98l32.92 25a4.17 4.17 0 0 0 5 0l32.92-25v36.66a2.082 2.082 0 0 1-2.08 2.08z" class="cls-1"/><path d="M77.36 35.77l-2.88 2.17v-4.46l2.88 2.29zM43.24 8.48l4.46 3.58h-8.91l4.46-3.58zm-25 7.75h50a2.082 2.082 0 0 1 2.08 2.08v22.75L43.24 61.52 16.16 41.06V18.31c0-1.15.93-2.08 2.08-2.08zm-6.25 21.71l-2.88-2.17 2.88-2.29v4.46zm64.58 40.79H9.91a2.09 2.09 0 0 1-2.09-2.09V39.98l32.92 25a4.17 4.17 0 0 0 5 0l32.92-25v36.66a2.082 2.082 0 0 1-2.08 2.08z" class="cls-2"/><path d="M30.74 32.9h25c1.15 0 2.08-.93 2.08-2.08s-.93-2.08-2.08-2.08h-25c-1.15 0-2.08.93-2.08 2.08s.93 2.08 2.08 2.08zm0 12.5h25c1.15 0 2.08-.93 2.08-2.08s-.93-2.08-2.08-2.08h-25c-1.15 0-2.08.93-2.08 2.08s.93 2.08 2.08 2.08z" class="cls-3"/></svg>